# xmcd
#
# Track frame offsets:
#	150
#	7479
#	52115
#	99872
#	132651
#	153945
#
# Disc length: 3051 seconds
#
# Revision: 0
# Processed by: cddbd v1.5.2PL0 Copyright (c) Steve Scherf et al.
# Submitted via: audiograbber 1.83.01
#
DISCID=4e0be906
DTITLE=Grateful Dead - 92-06-22 Star Lake Amphitheatre, Burgettstown PA
DYEAR=1900
DGENRE=
TTITLE0=Crowd and Tuning
TTITLE1=Scarlet Begonias
TTITLE2=Fire On The Mountain
TTITLE3=Victim Or The Crime
TTITLE4=Dark Star
TTITLE5=Drums
EXTD=
EXTT0=
EXTT1=
EXTT2=
EXTT3=
EXTT4=
EXTT5=
PLAYORDER=
